<?xml version="1.0" standalone="no"?>
<!DOCTYPE svg PUBLIC "-//W3C//DTD SVG 20010904//EN"
 "http://www.w3.org/TR/2001/REC-SVG-20010904/DTD/svg10.dtd">
<svg version="1.0" xmlns="http://www.w3.org/2000/svg"
 width="333.000000pt" height="333.000000pt" viewBox="0 0 333.000000 333.000000"
 preserveAspectRatio="xMidYMid meet">
<metadata>
Created by potrace 1.14, written by Peter Selinger 2001-2017
</metadata>
<g transform="translate(0.000000,333.000000) scale(0.100000,-0.100000)"
fill="#000000" stroke="none">
<path d="M1782 3268 c-57 -21 -197 -63 -311 -93 -115 -30 -232 -63 -262 -75
-189 -72 -333 -180 -391 -294 -22 -43 -32 -130 -17 -157 7 -14 -3 -18 -69 -29
-42 -8 -85 -15 -96 -17 -40 -7 -169 -64 -221 -98 -194 -124 -258 -329 -148
-474 15 -19 22 -36 16 -38 -25 -9 -132 -84 -165 -117 -38 -38 -81 -117 -97
-181 -22 -84 -8 -194 37 -281 28 -54 111 -145 155 -169 20 -10 38 -26 40 -34
3 -9 35 -101 72 -206 37 -104 67 -196 68 -202 0 -7 3 -13 7 -13 4 0 7 -6 7
-12 1 -7 17 -58 36 -113 19 -55 69 -197 110 -315 41 -118 80 -227 87 -242 17
-36 80 -79 127 -87 21 -4 434 -6 918 -6 811 1 883 3 920 19 47 20 103 71 117
106 9 22 248 695 354 996 31 89 39 102 71 119 53 29 123 102 145 154 26 59 20
149 -13 217 -33 68 -150 181 -229 223 -36 19 -67 35 -69 37 -2 1 9 15 23 29
38 38 66 98 75 163 17 132 -60 250 -209 319 -38 18 -63 26 -140 48 -3 1 -31 5
-62 9 -61 9 -68 15 -42 37 25 21 44 65 44 104 0 98 -71 164 -335 310 -170 95
-316 215 -392 324 -26 36 -49 69 -52 72 -3 3 -53 -12 -109 -33z"/>
</g>
</svg>
